<svg width="542" height="580" viewBox="0 0 542 580" fill="none" xmlns="http://www.w3.org/2000/svg">
<path fill-rule="evenodd" clip-rule="evenodd" d="M529.679 145.767C535.679 149.232 535.679 157.892 529.679 161.356L283.367 303.565C281.998 304.355 280.446 304.77 278.867 304.77H277.353C275.773 304.77 274.221 304.355 272.853 303.565L26.7813 161.495C20.7813 158.031 20.7813 149.371 26.7813 145.907L273.851 3.2611C276.636 1.6534 280.066 1.65339 282.851 3.26109L529.679 145.767ZM256.753 331.083C259.538 332.691 261.253 335.662 261.253 338.877L261.253 554.202C261.253 563.14 249.634 566.613 244.729 559.141L17.1326 212.413C11.9283 204.485 20.9432 194.938 29.1565 199.68L256.753 331.083ZM456.168 151.694C456.169 151.694 456.169 151.695 456.168 151.695L277.016 253.712C277.016 253.712 277.016 253.712 277.016 253.712V253.712C277.016 253.712 277.016 253.712 277.016 253.712H272.682C272.681 253.712 272.681 253.712 272.681 253.712V253.712C272.681 253.712 272.681 253.712 272.681 253.712L93.6942 151.789C93.6941 151.789 93.694 151.789 93.6939 151.789C93.6939 151.788 93.694 151.788 93.6942 151.788L275.014 48.5371C275.014 48.537 275.014 48.537 275.014 48.5371L456.168 151.694Z" fill="#242630"/>
<path d="M349.16 124.73C354.388 121.678 354.462 114.15 349.297 110.995L321.793 94.193C319.269 92.6516 316.102 92.6277 313.555 94.1307L187.541 168.517C182.342 171.586 182.286 179.087 187.438 182.234L214.275 198.625C216.787 200.159 219.938 200.19 222.479 198.706L349.16 124.73Z" fill="#242630"/>
</svg>
