<svg width="913" height="348" viewBox="0 0 913 348" fill="none" xmlns="http://www.w3.org/2000/svg">
<path d="M49.0266 348H0V84.3258H11.7664L31.1987 107.324C35.5963 103.164 40.4098 99.2418 45.6393 95.5574C50.8688 91.873 56.2766 88.7234 61.8627 86.1086C67.5676 83.375 73.4508 81.2357 79.5122 79.6906C85.5737 78.1455 91.6946 77.373 97.8749 77.373C111.305 77.373 123.904 79.8094 135.67 84.6824C147.555 89.4365 157.895 96.2111 166.69 105.006C175.604 113.801 182.617 124.439 187.727 136.918C192.838 149.279 195.393 163.006 195.393 178.1C195.393 193.789 192.838 207.932 187.727 220.531C182.617 233.01 175.604 243.648 166.69 252.443C157.895 261.119 147.555 267.775 135.67 272.41C123.904 277.045 111.305 279.363 97.8749 279.363C93.5962 279.363 89.3175 278.887 85.0389 277.936C80.879 276.986 76.7192 275.738 72.5594 274.193C68.5184 272.529 64.4774 270.686 60.4364 268.666C56.5143 266.645 52.711 264.566 49.0266 262.426V348ZM146.545 178.1C146.545 170.018 145.238 162.768 142.623 156.35C140.127 149.932 136.68 144.525 132.283 140.127C127.885 135.611 122.715 132.164 116.772 129.787C110.83 127.41 104.531 126.221 97.8749 126.221C91.2192 126.221 84.92 127.41 78.9774 129.787C73.1536 132.164 68.043 135.611 63.6454 140.127C59.2479 144.525 55.7418 149.932 53.127 156.35C50.6311 162.768 49.3832 170.018 49.3832 178.1C49.3832 185.826 50.6311 192.898 53.127 199.316C55.7418 205.734 59.2479 211.201 63.6454 215.717C68.043 220.234 73.1536 223.74 78.9774 226.236C84.92 228.732 91.2192 229.98 97.8749 229.98C104.531 229.98 110.83 228.732 116.772 226.236C122.715 223.74 127.885 220.234 132.283 215.717C136.68 211.201 140.127 205.734 142.623 199.316C145.238 192.898 146.545 185.826 146.545 178.1Z" fill="#242630"/>
<path d="M417.963 178.1C417.963 192.363 415.408 205.674 410.297 218.035C405.187 230.277 398.234 240.914 389.439 249.947C380.644 258.861 370.304 265.932 358.418 271.162C346.652 276.273 333.994 278.828 320.445 278.828C307.015 278.828 294.357 276.273 282.472 271.162C270.705 265.932 260.365 258.861 251.451 249.947C242.656 240.914 235.703 230.277 230.593 218.035C225.482 205.674 222.927 192.363 222.927 178.1C222.927 163.6 225.482 150.17 230.593 137.809C235.703 125.449 242.656 114.811 251.451 105.898C260.365 96.8648 270.705 89.793 282.472 84.6824C294.357 79.5717 307.015 77.0164 320.445 77.0164C333.994 77.0164 346.652 79.4529 358.418 84.3258C370.304 89.0799 380.644 95.9139 389.439 104.828C398.234 113.623 405.187 124.26 410.297 136.74C415.408 149.1 417.963 162.887 417.963 178.1ZM368.937 178.1C368.937 170.256 367.629 163.184 365.015 156.885C362.519 150.467 359.072 145 354.674 140.484C350.277 135.848 345.107 132.342 339.164 129.965C333.34 127.469 327.101 126.221 320.445 126.221C313.789 126.221 307.49 127.469 301.547 129.965C295.724 132.342 290.613 135.848 286.216 140.484C281.937 145 278.55 150.467 276.054 156.885C273.558 163.184 272.31 170.256 272.31 178.1C272.31 185.469 273.558 192.303 276.054 198.602C278.55 204.902 281.937 210.369 286.216 215.004C290.613 219.639 295.724 223.324 301.547 226.057C307.49 228.672 313.789 229.98 320.445 229.98C327.101 229.98 333.34 228.732 339.164 226.236C345.107 223.74 350.277 220.234 354.674 215.717C359.072 211.201 362.519 205.734 365.015 199.316C367.629 192.898 368.937 185.826 368.937 178.1Z" fill="#242630"/>
<path d="M504.863 275.262H455.837V8.3791H504.863V275.262Z" fill="#242630"/>
<path d="M602.104 275.262H553.077V8.3791H602.104V275.262Z" fill="#242630"/>
<path d="M707.723 32.4467C707.723 36.9631 706.832 41.1824 705.049 45.1045C703.385 49.0266 701.067 52.4734 698.096 55.4447C695.125 58.2971 691.619 60.6148 687.578 62.3975C683.655 64.0615 679.436 64.8934 674.92 64.8934C670.403 64.8934 666.125 64.0615 662.084 62.3975C658.162 60.6148 654.715 58.2971 651.744 55.4447C648.891 52.4734 646.573 49.0266 644.791 45.1045C643.127 41.1824 642.295 36.9631 642.295 32.4467C642.295 28.0492 643.127 23.8893 644.791 19.9672C646.573 15.9262 648.891 12.4795 651.744 9.62705C654.715 6.65574 658.162 4.33811 662.084 2.67418C666.125 0.891393 670.403 0 674.92 0C679.436 0 683.655 0.891393 687.578 2.67418C691.619 4.33811 695.125 6.65574 698.096 9.62705C701.067 12.4795 703.385 15.9262 705.049 19.9672C706.832 23.8893 707.723 28.0492 707.723 32.4467ZM699.344 275.262H650.317V84.3258H699.344V275.262Z" fill="#242630"/>
<path d="M852.385 275.262H741.139V226.77H852.385C855.713 226.77 858.566 225.582 860.943 223.205C863.32 220.828 864.508 217.975 864.508 214.648C864.508 211.201 863.32 208.943 860.943 207.873C858.566 206.803 855.713 206.268 852.385 206.268H801.754C793.316 206.268 785.412 204.664 778.043 201.455C770.674 198.246 764.256 193.908 758.789 188.441C753.322 182.855 748.984 176.377 745.775 169.008C742.685 161.639 741.139 153.736 741.139 145.297C741.139 136.859 742.685 128.955 745.775 121.586C748.984 114.217 753.322 107.799 758.789 102.332C764.256 96.8648 770.674 92.5861 778.043 89.4959C785.412 86.2869 793.316 84.6824 801.754 84.6824H900.342V133.174H801.754C798.426 133.174 795.574 134.363 793.197 136.74C790.82 139.117 789.631 141.969 789.631 145.297C789.631 148.744 790.82 151.715 793.197 154.211C795.574 156.588 798.426 157.777 801.754 157.777H852.385C860.705 157.777 868.549 159.203 875.918 162.055C883.287 164.789 889.705 168.652 895.172 173.643C900.639 178.635 904.977 184.637 908.186 191.65C911.395 198.662 913 206.328 913 214.648C913 223.086 911.395 230.99 908.186 238.359C904.977 245.609 900.639 252.027 895.172 257.613C889.705 263.08 883.287 267.418 875.918 270.627C868.549 273.717 860.705 275.262 852.385 275.262Z" fill="#242630"/>
</svg>
